<mxfile host="app.diagrams.net" modified="2024-07-03T09:30:52.142Z" agent="Mozilla/5.0 (Windows NT 10.0; Win64; x64) AppleWebKit/537.36 (KHTML, like Gecko) Chrome/126.0.0.0 Safari/537.36" etag="u5Avc7-Gcai1yugy7GXZ" version="24.6.4" type="github">
  <diagram name="Page-1" id="fNpWAdS3YVlhdeIfCGpc">
    <mxGraphModel dx="2074" dy="1140" grid="1" gridSize="10" guides="1" tooltips="1" connect="1" arrows="1" fold="1" page="1" pageScale="1" pageWidth="850" pageHeight="1100" math="0" shadow="0">
      <root>
        <mxCell id="0" />
        <mxCell id="1" parent="0" />
        <mxCell id="iN5ojdxEgtJ3b6hq_Cjw-1" value="" style="rounded=0;whiteSpace=wrap;html=1;fillColor=#000000;" vertex="1" parent="1">
          <mxGeometry x="300" y="40" width="20" height="20" as="geometry" />
        </mxCell>
        <mxCell id="iN5ojdxEgtJ3b6hq_Cjw-3" value="" style="rounded=0;whiteSpace=wrap;html=1;fillColor=#CCCCCC;" vertex="1" parent="1">
          <mxGeometry x="140" y="120" width="20" height="20" as="geometry" />
        </mxCell>
        <mxCell id="iN5ojdxEgtJ3b6hq_Cjw-5" value="" style="rounded=0;whiteSpace=wrap;html=1;fillColor=#000000;" vertex="1" parent="1">
          <mxGeometry x="120" y="40" width="20" height="20" as="geometry" />
        </mxCell>
        <mxCell id="iN5ojdxEgtJ3b6hq_Cjw-6" value="" style="rounded=0;whiteSpace=wrap;html=1;fillColor=#000000;" vertex="1" parent="1">
          <mxGeometry x="200" y="120" width="20" height="20" as="geometry" />
        </mxCell>
        <mxCell id="iN5ojdxEgtJ3b6hq_Cjw-7" value="" style="rounded=0;whiteSpace=wrap;html=1;fillColor=#000000;" vertex="1" parent="1">
          <mxGeometry x="200" y="280" width="20" height="20" as="geometry" />
        </mxCell>
        <mxCell id="iN5ojdxEgtJ3b6hq_Cjw-8" value="" style="rounded=0;whiteSpace=wrap;html=1;fillColor=#000000;" vertex="1" parent="1">
          <mxGeometry x="300" y="120" width="20" height="20" as="geometry" />
        </mxCell>
        <mxCell id="iN5ojdxEgtJ3b6hq_Cjw-9" value="" style="rounded=0;whiteSpace=wrap;html=1;fillColor=#000000;" vertex="1" parent="1">
          <mxGeometry x="220" y="280" width="20" height="20" as="geometry" />
        </mxCell>
        <mxCell id="iN5ojdxEgtJ3b6hq_Cjw-10" value="" style="rounded=0;whiteSpace=wrap;html=1;fillColor=#000000;" vertex="1" parent="1">
          <mxGeometry x="540" y="40" width="20" height="20" as="geometry" />
        </mxCell>
        <mxCell id="iN5ojdxEgtJ3b6hq_Cjw-11" value="" style="rounded=0;whiteSpace=wrap;html=1;fillColor=#000000;" vertex="1" parent="1">
          <mxGeometry x="240" y="200" width="20" height="20" as="geometry" />
        </mxCell>
        <mxCell id="iN5ojdxEgtJ3b6hq_Cjw-12" value="" style="rounded=0;whiteSpace=wrap;html=1;fillColor=#000000;" vertex="1" parent="1">
          <mxGeometry x="280" y="200" width="20" height="20" as="geometry" />
        </mxCell>
        <mxCell id="iN5ojdxEgtJ3b6hq_Cjw-13" value="" style="rounded=0;whiteSpace=wrap;html=1;fillColor=#000000;" vertex="1" parent="1">
          <mxGeometry x="200" y="40" width="20" height="20" as="geometry" />
        </mxCell>
        <mxCell id="iN5ojdxEgtJ3b6hq_Cjw-14" value="" style="rounded=0;whiteSpace=wrap;html=1;fillColor=#000000;" vertex="1" parent="1">
          <mxGeometry x="240" y="280" width="20" height="20" as="geometry" />
        </mxCell>
        <mxCell id="iN5ojdxEgtJ3b6hq_Cjw-15" value="" style="rounded=0;whiteSpace=wrap;html=1;fillColor=#000000;" vertex="1" parent="1">
          <mxGeometry x="280" y="120" width="20" height="20" as="geometry" />
        </mxCell>
        <mxCell id="iN5ojdxEgtJ3b6hq_Cjw-16" value="" style="rounded=0;whiteSpace=wrap;html=1;fillColor=#000000;" vertex="1" parent="1">
          <mxGeometry x="620" y="120" width="20" height="20" as="geometry" />
        </mxCell>
        <mxCell id="iN5ojdxEgtJ3b6hq_Cjw-17" value="" style="rounded=0;whiteSpace=wrap;html=1;fillColor=#000000;" vertex="1" parent="1">
          <mxGeometry x="660" y="360" width="20" height="20" as="geometry" />
        </mxCell>
        <mxCell id="iN5ojdxEgtJ3b6hq_Cjw-18" value="" style="rounded=0;whiteSpace=wrap;html=1;fillColor=#000000;" vertex="1" parent="1">
          <mxGeometry x="520" y="360" width="20" height="20" as="geometry" />
        </mxCell>
        <mxCell id="iN5ojdxEgtJ3b6hq_Cjw-19" value="" style="rounded=0;whiteSpace=wrap;html=1;fillColor=#000000;" vertex="1" parent="1">
          <mxGeometry x="600" y="200" width="20" height="20" as="geometry" />
        </mxCell>
        <mxCell id="iN5ojdxEgtJ3b6hq_Cjw-20" value="" style="rounded=0;whiteSpace=wrap;html=1;fillColor=#000000;" vertex="1" parent="1">
          <mxGeometry x="660" y="40" width="20" height="20" as="geometry" />
        </mxCell>
        <mxCell id="iN5ojdxEgtJ3b6hq_Cjw-34" value="" style="rounded=0;whiteSpace=wrap;html=1;fillColor=#999999;" vertex="1" parent="1">
          <mxGeometry x="280" y="40" width="20" height="20" as="geometry" />
        </mxCell>
        <mxCell id="iN5ojdxEgtJ3b6hq_Cjw-35" value="" style="rounded=0;whiteSpace=wrap;html=1;fillColor=#999999;" vertex="1" parent="1">
          <mxGeometry x="180" y="40" width="20" height="20" as="geometry" />
        </mxCell>
        <mxCell id="iN5ojdxEgtJ3b6hq_Cjw-36" value="" style="rounded=0;whiteSpace=wrap;html=1;fillColor=#999999;" vertex="1" parent="1">
          <mxGeometry x="520" y="120" width="20" height="20" as="geometry" />
        </mxCell>
        <mxCell id="iN5ojdxEgtJ3b6hq_Cjw-37" value="" style="rounded=0;whiteSpace=wrap;html=1;fillColor=#999999;" vertex="1" parent="1">
          <mxGeometry x="160" y="200" width="20" height="20" as="geometry" />
        </mxCell>
        <mxCell id="iN5ojdxEgtJ3b6hq_Cjw-38" value="" style="rounded=0;whiteSpace=wrap;html=1;fillColor=#999999;" vertex="1" parent="1">
          <mxGeometry x="540" y="360" width="20" height="20" as="geometry" />
        </mxCell>
        <mxCell id="iN5ojdxEgtJ3b6hq_Cjw-39" value="" style="rounded=0;whiteSpace=wrap;html=1;fillColor=#999999;" vertex="1" parent="1">
          <mxGeometry x="180" y="120" width="20" height="20" as="geometry" />
        </mxCell>
        <mxCell id="iN5ojdxEgtJ3b6hq_Cjw-40" value="" style="rounded=0;whiteSpace=wrap;html=1;fillColor=#999999;" vertex="1" parent="1">
          <mxGeometry x="560" y="360" width="20" height="20" as="geometry" />
        </mxCell>
        <mxCell id="iN5ojdxEgtJ3b6hq_Cjw-41" value="" style="rounded=0;whiteSpace=wrap;html=1;fillColor=#999999;" vertex="1" parent="1">
          <mxGeometry x="160" y="120" width="20" height="20" as="geometry" />
        </mxCell>
        <mxCell id="iN5ojdxEgtJ3b6hq_Cjw-42" value="" style="rounded=0;whiteSpace=wrap;html=1;fillColor=#999999;" vertex="1" parent="1">
          <mxGeometry x="120" y="280" width="20" height="20" as="geometry" />
        </mxCell>
        <mxCell id="iN5ojdxEgtJ3b6hq_Cjw-43" value="" style="rounded=0;whiteSpace=wrap;html=1;fillColor=#999999;" vertex="1" parent="1">
          <mxGeometry x="600" y="280" width="20" height="20" as="geometry" />
        </mxCell>
        <mxCell id="iN5ojdxEgtJ3b6hq_Cjw-44" value="" style="rounded=0;whiteSpace=wrap;html=1;fillColor=#999999;" vertex="1" parent="1">
          <mxGeometry x="220" y="200" width="20" height="20" as="geometry" />
        </mxCell>
        <mxCell id="iN5ojdxEgtJ3b6hq_Cjw-45" value="" style="rounded=0;whiteSpace=wrap;html=1;fillColor=#999999;" vertex="1" parent="1">
          <mxGeometry x="700" y="280" width="20" height="20" as="geometry" />
        </mxCell>
        <mxCell id="iN5ojdxEgtJ3b6hq_Cjw-46" value="" style="rounded=0;whiteSpace=wrap;html=1;fillColor=#999999;" vertex="1" parent="1">
          <mxGeometry x="200" y="200" width="20" height="20" as="geometry" />
        </mxCell>
        <mxCell id="iN5ojdxEgtJ3b6hq_Cjw-47" value="" style="rounded=0;whiteSpace=wrap;html=1;fillColor=#999999;" vertex="1" parent="1">
          <mxGeometry x="540" y="280" width="20" height="20" as="geometry" />
        </mxCell>
        <mxCell id="iN5ojdxEgtJ3b6hq_Cjw-48" value="" style="rounded=0;whiteSpace=wrap;html=1;fillColor=#999999;" vertex="1" parent="1">
          <mxGeometry x="660" y="120" width="20" height="20" as="geometry" />
        </mxCell>
        <mxCell id="iN5ojdxEgtJ3b6hq_Cjw-49" value="" style="rounded=0;whiteSpace=wrap;html=1;fillColor=#999999;" vertex="1" parent="1">
          <mxGeometry x="640" y="40" width="20" height="20" as="geometry" />
        </mxCell>
        <mxCell id="iN5ojdxEgtJ3b6hq_Cjw-50" value="" style="rounded=0;whiteSpace=wrap;html=1;fillColor=#999999;" vertex="1" parent="1">
          <mxGeometry x="700" y="200" width="20" height="20" as="geometry" />
        </mxCell>
        <mxCell id="iN5ojdxEgtJ3b6hq_Cjw-51" value="" style="rounded=0;whiteSpace=wrap;html=1;fillColor=#999999;" vertex="1" parent="1">
          <mxGeometry x="580" y="200" width="20" height="20" as="geometry" />
        </mxCell>
        <mxCell id="iN5ojdxEgtJ3b6hq_Cjw-52" value="" style="rounded=0;whiteSpace=wrap;html=1;fillColor=#999999;" vertex="1" parent="1">
          <mxGeometry x="620" y="200" width="20" height="20" as="geometry" />
        </mxCell>
        <mxCell id="iN5ojdxEgtJ3b6hq_Cjw-53" value="" style="rounded=0;whiteSpace=wrap;html=1;fillColor=#999999;" vertex="1" parent="1">
          <mxGeometry x="620" y="40" width="20" height="20" as="geometry" />
        </mxCell>
        <mxCell id="iN5ojdxEgtJ3b6hq_Cjw-56" value="" style="rounded=0;whiteSpace=wrap;html=1;fillColor=#CCCCCC;" vertex="1" parent="1">
          <mxGeometry x="300" y="200" width="20" height="20" as="geometry" />
        </mxCell>
        <mxCell id="iN5ojdxEgtJ3b6hq_Cjw-57" value="" style="rounded=0;whiteSpace=wrap;html=1;fillColor=#CCCCCC;" vertex="1" parent="1">
          <mxGeometry x="140" y="40" width="20" height="20" as="geometry" />
        </mxCell>
        <mxCell id="iN5ojdxEgtJ3b6hq_Cjw-58" value="" style="rounded=0;whiteSpace=wrap;html=1;fillColor=#CCCCCC;" vertex="1" parent="1">
          <mxGeometry x="220" y="40" width="20" height="20" as="geometry" />
        </mxCell>
        <mxCell id="iN5ojdxEgtJ3b6hq_Cjw-59" value="" style="rounded=0;whiteSpace=wrap;html=1;fillColor=#CCCCCC;" vertex="1" parent="1">
          <mxGeometry x="260" y="120" width="20" height="20" as="geometry" />
        </mxCell>
        <mxCell id="iN5ojdxEgtJ3b6hq_Cjw-60" value="" style="rounded=0;whiteSpace=wrap;html=1;fillColor=#CCCCCC;" vertex="1" parent="1">
          <mxGeometry x="280" y="280" width="20" height="20" as="geometry" />
        </mxCell>
        <mxCell id="iN5ojdxEgtJ3b6hq_Cjw-61" value="" style="rounded=0;whiteSpace=wrap;html=1;fillColor=#CCCCCC;" vertex="1" parent="1">
          <mxGeometry x="120" y="200" width="20" height="20" as="geometry" />
        </mxCell>
        <mxCell id="iN5ojdxEgtJ3b6hq_Cjw-62" value="" style="rounded=0;whiteSpace=wrap;html=1;fillColor=#CCCCCC;" vertex="1" parent="1">
          <mxGeometry x="160" y="280" width="20" height="20" as="geometry" />
        </mxCell>
        <mxCell id="iN5ojdxEgtJ3b6hq_Cjw-63" value="" style="rounded=0;whiteSpace=wrap;html=1;fillColor=#CCCCCC;" vertex="1" parent="1">
          <mxGeometry x="240" y="40" width="20" height="20" as="geometry" />
        </mxCell>
        <mxCell id="iN5ojdxEgtJ3b6hq_Cjw-64" value="" style="rounded=0;whiteSpace=wrap;html=1;fillColor=#CCCCCC;" vertex="1" parent="1">
          <mxGeometry x="140" y="200" width="20" height="20" as="geometry" />
        </mxCell>
        <mxCell id="iN5ojdxEgtJ3b6hq_Cjw-65" value="" style="rounded=0;whiteSpace=wrap;html=1;fillColor=#CCCCCC;" vertex="1" parent="1">
          <mxGeometry x="140" y="280" width="20" height="20" as="geometry" />
        </mxCell>
        <mxCell id="iN5ojdxEgtJ3b6hq_Cjw-68" value="" style="rounded=0;whiteSpace=wrap;html=1;fillColor=#CCCCCC;" vertex="1" parent="1">
          <mxGeometry x="660" y="200" width="20" height="20" as="geometry" />
        </mxCell>
        <mxCell id="iN5ojdxEgtJ3b6hq_Cjw-69" value="" style="rounded=0;whiteSpace=wrap;html=1;fillColor=#CCCCCC;" vertex="1" parent="1">
          <mxGeometry x="260" y="280" width="20" height="20" as="geometry" />
        </mxCell>
        <mxCell id="iN5ojdxEgtJ3b6hq_Cjw-70" value="" style="rounded=0;whiteSpace=wrap;html=1;fillColor=#CCCCCC;" vertex="1" parent="1">
          <mxGeometry x="700" y="40" width="20" height="20" as="geometry" />
        </mxCell>
        <mxCell id="iN5ojdxEgtJ3b6hq_Cjw-71" value="" style="rounded=0;whiteSpace=wrap;html=1;fillColor=#CCCCCC;" vertex="1" parent="1">
          <mxGeometry x="520" y="280" width="20" height="20" as="geometry" />
        </mxCell>
        <mxCell id="iN5ojdxEgtJ3b6hq_Cjw-72" value="" style="rounded=0;whiteSpace=wrap;html=1;fillColor=#CCCCCC;" vertex="1" parent="1">
          <mxGeometry x="560" y="40" width="20" height="20" as="geometry" />
        </mxCell>
        <mxCell id="iN5ojdxEgtJ3b6hq_Cjw-73" value="" style="rounded=0;whiteSpace=wrap;html=1;fillColor=#CCCCCC;" vertex="1" parent="1">
          <mxGeometry x="640" y="120" width="20" height="20" as="geometry" />
        </mxCell>
        <mxCell id="iN5ojdxEgtJ3b6hq_Cjw-74" value="" style="rounded=0;whiteSpace=wrap;html=1;fillColor=#CCCCCC;" vertex="1" parent="1">
          <mxGeometry x="580" y="120" width="20" height="20" as="geometry" />
        </mxCell>
        <mxCell id="iN5ojdxEgtJ3b6hq_Cjw-75" value="" style="rounded=0;whiteSpace=wrap;html=1;fillColor=#CCCCCC;" vertex="1" parent="1">
          <mxGeometry x="620" y="280" width="20" height="20" as="geometry" />
        </mxCell>
        <mxCell id="iN5ojdxEgtJ3b6hq_Cjw-76" value="" style="rounded=0;whiteSpace=wrap;html=1;fillColor=#CCCCCC;" vertex="1" parent="1">
          <mxGeometry x="680" y="360" width="20" height="20" as="geometry" />
        </mxCell>
        <mxCell id="iN5ojdxEgtJ3b6hq_Cjw-81" value="P" style="rounded=0;whiteSpace=wrap;html=1;fillColor=none;fontStyle=1;fontSize=18;" vertex="1" parent="1">
          <mxGeometry x="580" y="40" width="20" height="20" as="geometry" />
        </mxCell>
        <mxCell id="iN5ojdxEgtJ3b6hq_Cjw-82" value="P" style="rounded=0;whiteSpace=wrap;html=1;fillColor=none;fontStyle=1;fontSize=18;" vertex="1" parent="1">
          <mxGeometry x="160" y="40" width="20" height="20" as="geometry" />
        </mxCell>
        <mxCell id="iN5ojdxEgtJ3b6hq_Cjw-83" value="P" style="rounded=0;whiteSpace=wrap;html=1;fillColor=none;fontStyle=1;fontSize=18;" vertex="1" parent="1">
          <mxGeometry x="220" y="120" width="20" height="20" as="geometry" />
        </mxCell>
        <mxCell id="iN5ojdxEgtJ3b6hq_Cjw-84" value="P" style="rounded=0;whiteSpace=wrap;html=1;fillColor=none;fontStyle=1;fontSize=18;" vertex="1" parent="1">
          <mxGeometry x="180" y="200" width="20" height="20" as="geometry" />
        </mxCell>
        <mxCell id="iN5ojdxEgtJ3b6hq_Cjw-85" value="P" style="rounded=0;whiteSpace=wrap;html=1;fillColor=none;fontStyle=1;fontSize=18;" vertex="1" parent="1">
          <mxGeometry x="260" y="200" width="20" height="20" as="geometry" />
        </mxCell>
        <mxCell id="iN5ojdxEgtJ3b6hq_Cjw-86" value="P" style="rounded=0;whiteSpace=wrap;html=1;fillColor=none;fontStyle=1;fontSize=18;" vertex="1" parent="1">
          <mxGeometry x="260" y="40" width="20" height="20" as="geometry" />
        </mxCell>
        <mxCell id="iN5ojdxEgtJ3b6hq_Cjw-87" value="P" style="rounded=0;whiteSpace=wrap;html=1;fillColor=none;fontStyle=1;fontSize=18;" vertex="1" parent="1">
          <mxGeometry x="240" y="120" width="20" height="20" as="geometry" />
        </mxCell>
        <mxCell id="iN5ojdxEgtJ3b6hq_Cjw-88" value="P" style="rounded=0;whiteSpace=wrap;html=1;fillColor=none;fontStyle=1;fontSize=18;" vertex="1" parent="1">
          <mxGeometry x="120" y="120" width="20" height="20" as="geometry" />
        </mxCell>
        <mxCell id="iN5ojdxEgtJ3b6hq_Cjw-90" value="P" style="rounded=0;whiteSpace=wrap;html=1;fillColor=none;fontStyle=1;fontSize=18;" vertex="1" parent="1">
          <mxGeometry x="700" y="120" width="20" height="20" as="geometry" />
        </mxCell>
        <mxCell id="iN5ojdxEgtJ3b6hq_Cjw-91" value="P" style="rounded=0;whiteSpace=wrap;html=1;fillColor=none;fontStyle=1;fontSize=18;" vertex="1" parent="1">
          <mxGeometry x="680" y="280" width="20" height="20" as="geometry" />
        </mxCell>
        <mxCell id="iN5ojdxEgtJ3b6hq_Cjw-92" value="P" style="rounded=0;whiteSpace=wrap;html=1;fillColor=none;fontStyle=1;fontSize=18;" vertex="1" parent="1">
          <mxGeometry x="580" y="360" width="20" height="20" as="geometry" />
        </mxCell>
        <mxCell id="iN5ojdxEgtJ3b6hq_Cjw-93" value="P" style="rounded=0;whiteSpace=wrap;html=1;fillColor=none;fontStyle=1;fontSize=18;" vertex="1" parent="1">
          <mxGeometry x="600" y="360" width="20" height="20" as="geometry" />
        </mxCell>
        <mxCell id="iN5ojdxEgtJ3b6hq_Cjw-94" value="P" style="rounded=0;whiteSpace=wrap;html=1;fillColor=none;fontStyle=1;fontSize=18;" vertex="1" parent="1">
          <mxGeometry x="560" y="200" width="20" height="20" as="geometry" />
        </mxCell>
        <mxCell id="iN5ojdxEgtJ3b6hq_Cjw-95" value="P" style="rounded=0;whiteSpace=wrap;html=1;fillColor=none;fontStyle=1;fontSize=18;" vertex="1" parent="1">
          <mxGeometry x="180" y="280" width="20" height="20" as="geometry" />
        </mxCell>
        <mxCell id="iN5ojdxEgtJ3b6hq_Cjw-96" value="P" style="rounded=0;whiteSpace=wrap;html=1;fillColor=none;fontStyle=1;fontSize=18;" vertex="1" parent="1">
          <mxGeometry x="520" y="200" width="20" height="20" as="geometry" />
        </mxCell>
        <mxCell id="iN5ojdxEgtJ3b6hq_Cjw-97" value="P" style="rounded=0;whiteSpace=wrap;html=1;fillColor=none;fontStyle=1;fontSize=18;" vertex="1" parent="1">
          <mxGeometry x="640" y="280" width="20" height="20" as="geometry" />
        </mxCell>
        <mxCell id="iN5ojdxEgtJ3b6hq_Cjw-98" value="P" style="rounded=0;whiteSpace=wrap;html=1;fillColor=none;fontStyle=1;fontSize=18;" vertex="1" parent="1">
          <mxGeometry x="680" y="40" width="20" height="20" as="geometry" />
        </mxCell>
        <mxCell id="iN5ojdxEgtJ3b6hq_Cjw-99" value="P" style="rounded=0;whiteSpace=wrap;html=1;fillColor=none;fontStyle=1;fontSize=18;" vertex="1" parent="1">
          <mxGeometry x="300" y="280" width="20" height="20" as="geometry" />
        </mxCell>
        <mxCell id="iN5ojdxEgtJ3b6hq_Cjw-102" value="" style="rounded=0;whiteSpace=wrap;html=1;" vertex="1" parent="1">
          <mxGeometry x="120" y="360" width="20" height="20" as="geometry" />
        </mxCell>
        <mxCell id="iN5ojdxEgtJ3b6hq_Cjw-107" value="" style="rounded=0;whiteSpace=wrap;html=1;" vertex="1" parent="1">
          <mxGeometry x="520" y="40" width="20" height="20" as="geometry" />
        </mxCell>
        <mxCell id="iN5ojdxEgtJ3b6hq_Cjw-112" value="" style="rounded=0;whiteSpace=wrap;html=1;" vertex="1" parent="1">
          <mxGeometry x="560" y="120" width="20" height="20" as="geometry" />
        </mxCell>
        <mxCell id="iN5ojdxEgtJ3b6hq_Cjw-114" value="" style="rounded=0;whiteSpace=wrap;html=1;" vertex="1" parent="1">
          <mxGeometry x="660" y="280" width="20" height="20" as="geometry" />
        </mxCell>
        <mxCell id="iN5ojdxEgtJ3b6hq_Cjw-116" value="" style="rounded=0;whiteSpace=wrap;html=1;" vertex="1" parent="1">
          <mxGeometry x="540" y="200" width="20" height="20" as="geometry" />
        </mxCell>
        <mxCell id="iN5ojdxEgtJ3b6hq_Cjw-117" value="" style="rounded=0;whiteSpace=wrap;html=1;" vertex="1" parent="1">
          <mxGeometry x="620" y="360" width="20" height="20" as="geometry" />
        </mxCell>
        <mxCell id="iN5ojdxEgtJ3b6hq_Cjw-118" value="" style="rounded=0;whiteSpace=wrap;html=1;" vertex="1" parent="1">
          <mxGeometry x="680" y="120" width="20" height="20" as="geometry" />
        </mxCell>
        <mxCell id="iN5ojdxEgtJ3b6hq_Cjw-119" value="" style="rounded=0;whiteSpace=wrap;html=1;" vertex="1" parent="1">
          <mxGeometry x="600" y="40" width="20" height="20" as="geometry" />
        </mxCell>
        <mxCell id="iN5ojdxEgtJ3b6hq_Cjw-120" value="" style="rounded=0;whiteSpace=wrap;html=1;" vertex="1" parent="1">
          <mxGeometry x="700" y="360" width="20" height="20" as="geometry" />
        </mxCell>
        <mxCell id="iN5ojdxEgtJ3b6hq_Cjw-121" value="" style="rounded=0;whiteSpace=wrap;html=1;" vertex="1" parent="1">
          <mxGeometry x="580" y="280" width="20" height="20" as="geometry" />
        </mxCell>
        <mxCell id="iN5ojdxEgtJ3b6hq_Cjw-122" value="" style="rounded=0;whiteSpace=wrap;html=1;" vertex="1" parent="1">
          <mxGeometry x="640" y="200" width="20" height="20" as="geometry" />
        </mxCell>
        <mxCell id="iN5ojdxEgtJ3b6hq_Cjw-126" value="" style="rounded=0;whiteSpace=wrap;html=1;" vertex="1" parent="1">
          <mxGeometry x="140" y="360" width="20" height="20" as="geometry" />
        </mxCell>
        <mxCell id="iN5ojdxEgtJ3b6hq_Cjw-127" value="" style="rounded=0;whiteSpace=wrap;html=1;" vertex="1" parent="1">
          <mxGeometry x="160" y="360" width="20" height="20" as="geometry" />
        </mxCell>
        <mxCell id="iN5ojdxEgtJ3b6hq_Cjw-128" value="" style="rounded=0;whiteSpace=wrap;html=1;" vertex="1" parent="1">
          <mxGeometry x="220" y="360" width="20" height="20" as="geometry" />
        </mxCell>
        <mxCell id="iN5ojdxEgtJ3b6hq_Cjw-129" value="" style="rounded=0;whiteSpace=wrap;html=1;" vertex="1" parent="1">
          <mxGeometry x="300" y="360" width="20" height="20" as="geometry" />
        </mxCell>
        <mxCell id="iN5ojdxEgtJ3b6hq_Cjw-130" value="" style="rounded=0;whiteSpace=wrap;html=1;" vertex="1" parent="1">
          <mxGeometry x="260" y="360" width="20" height="20" as="geometry" />
        </mxCell>
        <mxCell id="iN5ojdxEgtJ3b6hq_Cjw-131" value="" style="rounded=0;whiteSpace=wrap;html=1;" vertex="1" parent="1">
          <mxGeometry x="180" y="360" width="20" height="20" as="geometry" />
        </mxCell>
        <mxCell id="iN5ojdxEgtJ3b6hq_Cjw-132" value="" style="rounded=0;whiteSpace=wrap;html=1;" vertex="1" parent="1">
          <mxGeometry x="200" y="360" width="20" height="20" as="geometry" />
        </mxCell>
        <mxCell id="iN5ojdxEgtJ3b6hq_Cjw-133" value="" style="rounded=0;whiteSpace=wrap;html=1;" vertex="1" parent="1">
          <mxGeometry x="280" y="360" width="20" height="20" as="geometry" />
        </mxCell>
        <mxCell id="iN5ojdxEgtJ3b6hq_Cjw-134" value="" style="rounded=0;whiteSpace=wrap;html=1;" vertex="1" parent="1">
          <mxGeometry x="240" y="360" width="20" height="20" as="geometry" />
        </mxCell>
        <mxCell id="iN5ojdxEgtJ3b6hq_Cjw-135" value="" style="rounded=0;whiteSpace=wrap;html=1;fillColor=#000000;" vertex="1" parent="1">
          <mxGeometry x="600" y="120" width="20" height="20" as="geometry" />
        </mxCell>
        <mxCell id="iN5ojdxEgtJ3b6hq_Cjw-136" value="" style="rounded=0;whiteSpace=wrap;html=1;fillColor=#000000;" vertex="1" parent="1">
          <mxGeometry x="640" y="360" width="20" height="20" as="geometry" />
        </mxCell>
        <mxCell id="iN5ojdxEgtJ3b6hq_Cjw-137" value="" style="rounded=0;whiteSpace=wrap;html=1;fillColor=#000000;" vertex="1" parent="1">
          <mxGeometry x="560" y="280" width="20" height="20" as="geometry" />
        </mxCell>
        <mxCell id="iN5ojdxEgtJ3b6hq_Cjw-138" value="" style="rounded=0;whiteSpace=wrap;html=1;fillColor=#000000;" vertex="1" parent="1">
          <mxGeometry x="680" y="200" width="20" height="20" as="geometry" />
        </mxCell>
        <mxCell id="iN5ojdxEgtJ3b6hq_Cjw-139" value="" style="rounded=0;whiteSpace=wrap;html=1;fillColor=#000000;" vertex="1" parent="1">
          <mxGeometry x="540" y="120" width="20" height="20" as="geometry" />
        </mxCell>
        <mxCell id="iN5ojdxEgtJ3b6hq_Cjw-142" value="" style="rounded=1;whiteSpace=wrap;html=1;fillColor=none;" vertex="1" parent="1">
          <mxGeometry x="100" y="20" width="240" height="60" as="geometry" />
        </mxCell>
        <mxCell id="iN5ojdxEgtJ3b6hq_Cjw-143" value="SSD 1" style="rounded=0;whiteSpace=wrap;html=1;fillColor=none;strokeColor=none;fontSize=18;fontStyle=1" vertex="1" parent="1">
          <mxGeometry x="30" y="30" width="60" height="40" as="geometry" />
        </mxCell>
        <mxCell id="iN5ojdxEgtJ3b6hq_Cjw-144" value="SSD 2" style="rounded=0;whiteSpace=wrap;html=1;fillColor=none;strokeColor=none;fontSize=18;fontStyle=1" vertex="1" parent="1">
          <mxGeometry x="30" y="110" width="60" height="40" as="geometry" />
        </mxCell>
        <mxCell id="iN5ojdxEgtJ3b6hq_Cjw-145" value="" style="rounded=1;whiteSpace=wrap;html=1;fillColor=none;" vertex="1" parent="1">
          <mxGeometry x="100" y="100" width="240" height="60" as="geometry" />
        </mxCell>
        <mxCell id="iN5ojdxEgtJ3b6hq_Cjw-146" value="SSD 3" style="rounded=0;whiteSpace=wrap;html=1;fillColor=none;strokeColor=none;fontSize=18;fontStyle=1" vertex="1" parent="1">
          <mxGeometry x="30" y="190" width="60" height="40" as="geometry" />
        </mxCell>
        <mxCell id="iN5ojdxEgtJ3b6hq_Cjw-147" value="" style="rounded=1;whiteSpace=wrap;html=1;fillColor=none;" vertex="1" parent="1">
          <mxGeometry x="100" y="180" width="240" height="60" as="geometry" />
        </mxCell>
        <mxCell id="iN5ojdxEgtJ3b6hq_Cjw-148" value="SSD 4" style="rounded=0;whiteSpace=wrap;html=1;fillColor=none;strokeColor=none;fontSize=18;fontStyle=1" vertex="1" parent="1">
          <mxGeometry x="30" y="270" width="60" height="40" as="geometry" />
        </mxCell>
        <mxCell id="iN5ojdxEgtJ3b6hq_Cjw-149" value="" style="rounded=1;whiteSpace=wrap;html=1;fillColor=none;" vertex="1" parent="1">
          <mxGeometry x="100" y="260" width="240" height="60" as="geometry" />
        </mxCell>
        <mxCell id="iN5ojdxEgtJ3b6hq_Cjw-150" value="New SSD" style="rounded=0;whiteSpace=wrap;html=1;fillColor=none;strokeColor=none;fontSize=18;fontStyle=1" vertex="1" parent="1">
          <mxGeometry y="350" width="90" height="40" as="geometry" />
        </mxCell>
        <mxCell id="iN5ojdxEgtJ3b6hq_Cjw-151" value="" style="rounded=1;whiteSpace=wrap;html=1;fillColor=none;dashed=1;dashPattern=12 12;" vertex="1" parent="1">
          <mxGeometry x="100" y="340" width="240" height="60" as="geometry" />
        </mxCell>
        <mxCell id="iN5ojdxEgtJ3b6hq_Cjw-152" value="" style="rounded=1;whiteSpace=wrap;html=1;fillColor=none;" vertex="1" parent="1">
          <mxGeometry x="500" y="20" width="240" height="60" as="geometry" />
        </mxCell>
        <mxCell id="iN5ojdxEgtJ3b6hq_Cjw-153" value="" style="rounded=1;whiteSpace=wrap;html=1;fillColor=none;" vertex="1" parent="1">
          <mxGeometry x="500" y="100" width="240" height="60" as="geometry" />
        </mxCell>
        <mxCell id="iN5ojdxEgtJ3b6hq_Cjw-154" value="" style="rounded=1;whiteSpace=wrap;html=1;fillColor=none;" vertex="1" parent="1">
          <mxGeometry x="500" y="180" width="240" height="60" as="geometry" />
        </mxCell>
        <mxCell id="iN5ojdxEgtJ3b6hq_Cjw-155" value="" style="rounded=1;whiteSpace=wrap;html=1;fillColor=none;" vertex="1" parent="1">
          <mxGeometry x="500" y="260" width="240" height="60" as="geometry" />
        </mxCell>
        <mxCell id="iN5ojdxEgtJ3b6hq_Cjw-156" value="" style="rounded=1;whiteSpace=wrap;html=1;fillColor=none;" vertex="1" parent="1">
          <mxGeometry x="500" y="340" width="240" height="60" as="geometry" />
        </mxCell>
        <mxCell id="iN5ojdxEgtJ3b6hq_Cjw-157" value="" style="shape=flexArrow;endArrow=classic;html=1;rounded=0;" edge="1" parent="1">
          <mxGeometry width="50" height="50" relative="1" as="geometry">
            <mxPoint x="360" y="209.5" as="sourcePoint" />
            <mxPoint x="480" y="210" as="targetPoint" />
          </mxGeometry>
        </mxCell>
      </root>
    </mxGraphModel>
  </diagram>
</mxfile>
